<?xml version="1.0" encoding="utf-8"?>
<svg viewBox="0 0 171 36" fill="none" xmlns="http://www.w3.org/2000/svg">
  <path d="M 39.06 37.026 L 39.075 37.684 Q 38.87 38.241 38.345 39.212 Q 38.254 38.694 38.12 38.262 Q 37.59 38.024 37.021 38.024 Q 36.092 38.024 35.434 38.572 Q 34.772 39.123 34.588 39.861 Q 34.487 40.267 34.635 40.558 Q 34.78 40.847 35.335 41.095 Q 35.893 41.342 36.791 41.467 Q 37.09 41.512 37.408 41.538 Q 37.726 41.565 38.109 41.58 Q 38.493 41.595 38.829 41.595 L 38.133 42.283 Q 36.918 42.5 35.887 42.5 Q 34.526 42.5 34.027 41.979 Q 33.522 41.461 33.729 40.633 Q 33.957 39.716 34.706 38.828 Q 35.448 37.94 36.479 37.449 Q 37.51 36.957 38.422 36.957 Q 38.726 36.957 39.06 37.026 Z M 40.346 39.105 L 40.119 40.275 Q 40.329 40.094 40.546 39.866 Q 40.764 39.638 40.927 39.439 Q 40.822 39.203 40.346 39.105 Z M 40.537 38.387 Q 40.578 38.399 41.05 38.491 Q 41.477 38.572 41.608 38.616 Q 41.736 38.667 41.833 38.777 Q 41.931 38.888 41.944 39.087 Q 41.957 39.284 41.873 39.62 L 41.64 40.496 Q 41.602 40.651 41.579 40.859 Q 41.291 40.904 40.5 41.115 Q 40.655 40.707 40.833 39.993 Q 40.762 40.076 40.451 40.344 Q 40.14 40.612 39.571 41.077 Q 39.246 40.984 39.08 40.898 Q 39.096 40.785 39.12 40.547 Q 39.162 40.174 39.237 39.873 Q 39.345 39.439 39.601 39.141 Q 39.85 38.846 40.537 38.387 Z M 42.629 38.995 L 42.72 38.628 Q 43.131 38.557 43.739 38.387 L 43.633 38.861 Q 44.021 38.545 44.21 38.387 Q 44.963 38.533 44.979 38.876 Q 45.223 38.646 45.553 38.387 Q 45.925 38.399 46.164 38.518 Q 46.397 38.634 46.45 38.816 Q 46.503 38.998 46.423 39.319 Q 46.361 39.567 46.232 39.939 Q 46.143 40.201 46.118 40.302 Q 46.099 40.377 46.056 40.609 Q 45.621 40.934 44.903 41.279 Q 44.996 41.05 45.155 40.508 L 45.178 40.439 Q 45.262 40.165 45.3 40.01 Q 45.403 39.596 45.369 39.4 Q 45.333 39.197 45.185 39.016 Q 44.981 39.331 44.933 39.394 Q 44.885 39.632 44.788 40.022 Q 44.668 40.505 44.552 40.871 Q 43.832 40.987 43.588 41.083 Q 43.641 40.883 43.679 40.731 Q 44.013 39.391 43.787 39.054 L 43.512 39.394 L 43.173 40.907 Q 42.325 40.987 42.039 41.038 Q 42.355 40.091 42.629 38.995 Z M 47.939 39.355 Q 47.924 39.537 47.883 39.701 L 47.786 40.076 Q 47.977 40.159 48.298 40.246 Q 48.362 40.085 48.399 39.936 Q 48.573 39.236 48.392 39.007 Q 48.163 39.197 47.939 39.355 Z M 46.999 38.599 Q 47.467 38.524 47.692 38.484 Q 47.916 38.444 48.116 38.393 Q 48.085 38.709 48.049 38.914 Q 48.334 38.762 48.546 38.622 Q 48.758 38.482 48.908 38.348 Q 49.285 38.459 49.482 38.673 Q 49.673 38.888 49.547 39.391 Q 49.325 40.284 48.316 40.961 L 47.967 40.785 L 47.769 40.692 Q 47.221 41.818 46.947 42.486 L 46.141 42.411 Q 46.19 42.271 46.344 41.811 Q 46.497 41.351 46.601 40.996 Q 46.704 40.642 46.761 40.413 Q 47.081 39.129 46.999 38.599 Z M 50.374 38.56 Q 50.731 38.536 51.508 38.322 Q 51.445 38.42 51.323 38.73 Q 51.25 38.914 51.148 39.147 Q 51.043 39.388 50.996 39.576 Q 50.947 39.772 50.977 39.951 Q 51.005 40.15 51.073 40.404 Q 51.404 40.183 51.563 40.025 Q 51.587 39.939 51.649 39.692 Q 51.856 38.861 51.877 38.479 Q 51.988 38.5 52.086 38.5 Q 52.458 38.5 52.966 38.423 Q 52.825 38.882 52.66 39.543 Q 52.564 39.927 52.365 40.835 Q 52.188 40.865 51.669 40.964 L 51.238 41.044 Q 51.362 40.761 51.42 40.526 Q 51.163 40.639 50.54 40.999 Q 50.15 40.892 50.056 40.827 Q 49.955 40.764 49.898 40.564 Q 49.841 40.362 49.934 39.987 Q 50.119 39.248 50.374 38.56 Z M 54.457 38.369 Q 54.474 38.369 54.96 38.405 Q 55.482 38.438 55.985 38.438 Q 55.979 38.45 55.864 38.661 Q 55.674 39.007 55.629 39.173 Q 55.315 39.036 54.33 38.95 Q 54.367 39.373 55.159 39.373 Q 55.576 39.373 55.722 39.409 Q 55.862 39.444 55.921 39.558 Q 55.977 39.668 55.925 39.876 Q 55.869 40.1 55.72 40.314 Q 55.565 40.529 55.399 40.66 Q 55.228 40.794 54.856 40.901 Q 54.487 41.008 54.108 41.008 Q 53.453 41.008 53.082 40.74 Q 53.18 40.561 53.355 40.302 Q 53.769 40.505 54.356 40.505 Q 54.666 40.505 54.971 40.332 Q 54.821 40.204 54.607 40.204 Q 54.562 40.204 54.499 40.207 Q 54.348 40.213 54.328 40.213 Q 53.741 40.213 53.478 40.037 Q 53.214 39.864 53.321 39.436 Q 53.406 39.096 53.648 38.867 Q 53.886 38.64 54.457 38.369 Z M 63.806 37.026 L 63.82 37.684 Q 63.616 38.241 63.091 39.212 Q 63 38.694 62.866 38.262 Q 62.336 38.024 61.767 38.024 Q 60.838 38.024 60.18 38.572 Q 59.518 39.123 59.334 39.861 Q 59.233 40.267 59.381 40.558 Q 59.526 40.847 60.081 41.095 Q 60.639 41.342 61.537 41.467 Q 61.836 41.512 62.154 41.538 Q 62.471 41.565 62.855 41.58 Q 63.238 41.595 63.575 41.595 L 62.879 42.283 Q 61.663 42.5 60.633 42.5 Q 59.272 42.5 58.773 41.979 Q 58.268 41.461 58.474 40.633 Q 58.703 39.716 59.452 38.828 Q 60.194 37.94 61.225 37.449 Q 62.256 36.957 63.168 36.957 Q 63.471 36.957 63.806 37.026 Z M 65.334 38.935 Q 65.11 39.2 65.039 39.483 Q 64.847 40.255 65.594 40.424 Q 65.743 40.127 65.814 39.841 Q 65.929 39.382 65.761 39.182 Q 65.595 38.986 65.334 38.935 Z M 66.731 38.456 L 66.502 38.73 Q 66.708 38.798 66.794 39.019 Q 66.881 39.242 66.799 39.57 Q 66.72 39.885 66.531 40.156 Q 66.339 40.424 66.168 40.547 Q 65.993 40.675 65.602 40.847 Q 65.532 40.877 65.399 40.958 Q 65.296 41.023 65.225 41.056 Q 64.645 41.053 64.25 40.728 Q 63.852 40.413 63.972 39.93 Q 64.168 39.144 65.435 38.423 Q 65.921 38.468 66.267 38.468 Q 66.523 38.468 66.731 38.456 Z M 68.257 38.468 L 68.564 38.381 L 68.467 38.771 Q 68.563 38.721 68.808 38.599 Q 68.889 38.56 68.969 38.515 L 69.26 38.363 Q 69.527 38.402 69.659 38.459 Q 69.785 38.515 69.849 38.628 Q 69.911 38.739 69.916 38.852 Q 69.92 38.953 69.861 39.188 Q 69.792 39.468 69.643 39.85 Q 69.485 40.255 69.407 40.547 L 68.768 40.898 L 68.67 40.955 Q 68.391 41.118 68.225 41.178 Q 68.603 40.353 68.72 39.885 Q 68.86 39.322 68.719 38.896 Q 68.707 38.908 68.585 39.004 L 68.517 39.063 L 68.364 39.185 L 67.952 40.898 Q 67.463 40.913 66.907 41.041 Q 66.945 40.886 66.961 40.835 Q 67.013 40.651 67.022 40.615 L 67.039 40.547 Q 67.061 40.421 67.074 40.371 L 67.249 39.668 Q 67.382 39.135 67.469 38.712 Q 67.511 38.7 67.566 38.683 Q 67.62 38.667 67.69 38.646 Q 67.759 38.625 67.837 38.599 Z M 71.28 38.468 L 71.587 38.381 L 71.49 38.771 Q 71.586 38.721 71.831 38.599 Q 71.912 38.56 71.991 38.515 L 72.283 38.363 Q 72.55 38.402 72.682 38.459 Q 72.808 38.515 72.872 38.628 Q 72.934 38.739 72.938 38.852 Q 72.943 38.953 72.884 39.188 Q 72.814 39.468 72.666 39.85 Q 72.508 40.255 72.429 40.547 L 71.791 40.898 L 71.693 40.955 Q 71.414 41.118 71.247 41.178 Q 71.626 40.353 71.742 39.885 Q 71.883 39.322 71.742 38.896 Q 71.73 38.908 71.608 39.004 L 71.539 39.063 L 71.387 39.185 L 70.974 40.898 Q 70.485 40.913 69.929 41.041 Q 69.968 40.886 69.983 40.835 Q 70.035 40.651 70.044 40.615 L 70.061 40.547 Q 70.084 40.421 70.096 40.371 L 70.271 39.668 Q 70.404 39.135 70.492 38.712 Q 70.534 38.7 70.588 38.683 Q 70.643 38.667 70.712 38.646 Q 70.782 38.625 70.86 38.599 Z M 74.39 38.977 L 74.131 39.704 Q 74.39 39.704 74.692 39.686 Q 74.747 39.489 74.745 39.498 Q 74.808 39.245 74.706 39.117 Q 74.602 38.986 74.39 38.977 Z M 73.498 38.947 L 74.31 38.378 L 75.096 38.438 Q 75.475 38.471 75.596 38.631 Q 75.721 38.798 75.672 38.995 Q 75.65 39.081 75.592 39.218 Q 75.52 39.379 75.404 39.698 Q 74.944 39.909 74.723 39.945 Q 74.5 39.981 74.303 39.981 Q 74.229 39.981 74.122 39.966 Q 74.324 40.329 74.601 40.329 Q 74.928 40.329 75.252 40.082 L 75.276 40.082 Q 74.746 41.011 73.942 41.011 Q 73.525 41.011 73.366 40.895 Q 73.208 40.779 73.164 40.558 Q 73.116 40.344 73.266 39.745 L 73.408 39.236 Z M 77.011 38.348 Q 77.608 38.363 77.852 38.426 Q 78.112 38.494 78.239 38.715 Q 78.364 38.941 78.278 39.287 Q 77.794 39.364 77.34 39.522 Q 77.354 39.191 77.084 39.117 Q 76.896 39.656 76.845 39.858 Q 76.808 40.007 76.871 40.103 Q 76.934 40.198 77.105 40.264 Q 77.281 40.335 77.439 40.335 Q 77.689 40.335 77.985 40.043 L 77.994 40.055 Q 77.7 40.541 77.388 40.764 Q 77.079 40.987 76.576 40.987 Q 76.201 40.987 76.009 40.835 Q 75.821 40.684 75.798 40.463 Q 75.773 40.243 75.863 39.879 Q 75.957 39.504 76.126 38.947 Q 76.551 38.625 77.011 38.348 Z M 79.19 38.348 L 79.247 38.107 Q 79.284 38.101 79.538 38.077 Q 79.969 38.033 80.182 38.003 Q 80.173 38.051 80.159 38.104 Q 80.136 38.199 80.06 38.42 Q 80.153 38.429 80.436 38.429 Q 80.629 38.429 80.697 38.42 Q 80.496 38.902 80.451 38.989 Q 80.244 39.019 79.889 39.033 Q 79.758 39.474 79.718 39.635 Q 79.653 39.894 79.737 40.049 Q 79.818 40.201 80.092 40.287 L 79.382 41.068 Q 78.475 40.8 78.659 40.061 Q 78.689 39.939 78.818 39.59 Q 78.949 39.23 78.986 39.105 Q 78.849 39.108 78.674 39.138 L 79.125 38.596 L 79.14 38.536 Z" transform="matrix(3.17892, 0, 0, 3.905347, -96.226892, -136.628435)" style="fill: rgb(255, 255, 255); stroke-linecap: round; text-transform: capitalize;"/>
</svg>